<svg width="24" height="24" viewBox="0 0 24 24" fill="none" xmlns="http://www.w3.org/2000/svg">
<path d="M20.1598 4.60981C19.0981 3.54782 17.6905 2.90214 16.193 2.79019C14.6955 2.67825 13.2076 3.10748 11.9998 3.99981C10.7274 3.05345 9.14378 2.62433 7.56771 2.79885C5.99164 2.97338 4.54023 3.73859 3.50576 4.9404C2.47129 6.14221 1.93061 7.69133 1.99259 9.27583C2.05457 10.8603 2.71461 12.3625 3.83979 13.4798L11.2898 20.9298C11.3828 21.0235 11.4934 21.0979 11.6152 21.1487C11.7371 21.1995 11.8678 21.2256 11.9998 21.2256C12.1318 21.2256 12.2625 21.1995 12.3844 21.1487C12.5062 21.0979 12.6168 21.0235 12.7098 20.9298L20.1598 13.4798C20.7424 12.8975 21.2047 12.2062 21.52 11.4452C21.8354 10.6842 21.9977 9.86854 21.9977 9.04481C21.9977 8.22108 21.8354 7.40542 21.52 6.64445C21.2047 5.88347 20.7424 5.19209 20.1598 4.60981V4.60981ZM18.7498 12.0698L11.9998 18.8098L5.24979 12.0698C4.65496 11.4725 4.24976 10.7129 4.08502 9.88615C3.92027 9.05945 4.00332 8.2025 4.32374 7.42281C4.64416 6.64312 5.18768 5.97541 5.88613 5.50344C6.58458 5.03147 7.40685 4.77625 8.24979 4.76981C9.3759 4.77257 10.4549 5.22215 11.2498 6.01981C11.3428 6.11354 11.4534 6.18794 11.5752 6.23871C11.6971 6.28947 11.8278 6.31561 11.9598 6.31561C12.0918 6.31561 12.2225 6.28947 12.3444 6.23871C12.4662 6.18794 12.5768 6.11354 12.6698 6.01981C13.4881 5.3107 14.5453 4.93896 15.6273 4.97984C16.7094 5.02072 17.7355 5.47116 18.498 6.24C19.2605 7.00884 19.7024 8.03865 19.7343 9.121C19.7662 10.2034 19.3857 11.2574 18.6698 12.0698H18.7498Z" fill="white"/>
</svg>
